<?xml version="1.0" standalone="no"?>
<!DOCTYPE svg PUBLIC "-//W3C//DTD SVG 20010904//EN"
 "http://www.w3.org/TR/2001/REC-SVG-20010904/DTD/svg10.dtd">
<svg version="1.0" xmlns="http://www.w3.org/2000/svg"
 width="3464.000000pt" height="3464.000000pt" viewBox="0 0 3464.000000 3464.000000"
 preserveAspectRatio="xMidYMid meet">

<g transform="translate(0.000000,3464.000000) scale(0.100000,-0.100000)"
fill="#000000" stroke="none">
<path d="M6756 19854 c-335 -43 -651 -139 -977 -296 l-147 -70 -68 27 c-37 15
-111 39 -163 53 -91 25 -109 26 -341 26 -316 1 -463 -24 -709 -120 -484 -189
-881 -544 -1186 -1059 -245 -414 -385 -902 -385 -1339 0 -158 12 -257 46 -374
83 -285 250 -485 520 -623 280 -142 690 -180 1025 -94 263 67 441 152 909 430
113 67 248 147 300 177 52 31 180 106 284 167 103 62 190 110 192 108 3 -2 -4
-56 -16 -118 -25 -141 -50 -356 -50 -427 0 -98 46 -141 166 -156 45 -6 59 -2
108 24 60 31 176 112 311 216 44 33 159 114 255 179 96 66 205 140 243 167 37
26 67 44 67 39 0 -36 -61 -452 -69 -474 -19 -50 -13 -148 12 -197 32 -63 79
-85 182 -84 64 0 93 6 145 28 90 39 333 173 675 373 160 93 503 294 764 447
260 152 475 275 477 273 8 -8 -268 -613 -323 -710 -84 -147 -95 -189 -72 -270
32 -117 191 -182 349 -143 90 22 305 131 565 287 121 72 299 177 395 233 96
57 299 176 450 265 291 172 332 195 288 161 -45 -35 -135 -162 -173 -242 -68
-149 -89 -295 -61 -429 18 -83 46 -138 98 -195 54 -59 113 -91 211 -116 131
-33 327 -15 502 45 196 69 298 122 650 342 143 89 301 183 350 208 50 25 193
106 320 181 126 74 231 134 232 132 2 -2 -10 -39 -27 -82 -73 -188 -110 -389
-92 -493 24 -133 88 -221 202 -275 60 -29 73 -31 170 -31 85 1 117 5 169 24
151 56 270 153 360 296 30 48 31 49 24 15 -15 -67 -9 -212 10 -247 38 -71 116
-87 204 -41 124 66 961 563 985 586 35 33 47 87 24 110 -22 23 -38 16 -277
-126 -282 -166 -621 -354 -627 -348 -8 8 23 117 103 366 40 124 96 298 124
386 l52 162 55 7 c92 11 114 53 60 114 -121 136 -738 90 -1164 -86 -107 -44
-155 -70 -522 -286 -168 -99 -350 -200 -405 -224 -128 -56 -248 -121 -510
-273 -264 -155 -486 -264 -576 -284 -190 -44 -310 -1 -368 129 -23 51 -26 190
-6 285 42 207 159 440 289 578 66 71 106 94 153 90 51 -4 71 -41 79 -144 4
-43 13 -90 21 -102 20 -32 74 -53 115 -45 109 20 178 102 178 210 0 123 -110
183 -335 183 -213 0 -366 -63 -777 -321 -339 -213 -916 -557 -1172 -698 -158
-87 -299 -154 -353 -165 l-33 -8 19 44 c10 24 48 108 84 188 95 214 229 537
280 680 56 155 71 227 58 263 -11 27 -11 27 -121 27 l-111 0 -187 -106 c-103
-59 -320 -184 -482 -279 -162 -94 -320 -185 -350 -202 -50 -27 -242 -139 -757
-443 l-182 -108 -3 277 -3 276 -28 57 c-23 46 -36 61 -73 79 -83 39 -235 13
-344 -61 -25 -16 -88 -59 -140 -96 -110 -76 -510 -327 -514 -322 -2 1 20 151
49 333 l51 329 995 613 c546 337 1033 640 1081 673 184 130 298 285 306 416 9
140 -68 235 -248 307 -190 75 -586 93 -811 37 -420 -104 -806 -415 -1150 -927
-202 -300 -382 -652 -519 -1018 -29 -77 -60 -147 -69 -156 -33 -34 -746 -471
-1031 -632 -249 -140 -467 -240 -635 -292 -125 -38 -300 -45 -435 -17 -190 39
-344 124 -472 261 -81 87 -123 152 -173 268 -75 172 -93 310 -77 566 50 763
319 1443 736 1858 252 251 534 391 867 430 127 14 367 6 459 -16 85 -20 182
-56 178 -66 -2 -4 -48 -40 -102 -79 -152 -110 -259 -202 -401 -345 -265 -266
-461 -537 -604 -836 -238 -498 -225 -860 37 -993 60 -30 181 -56 264 -56 211
0 455 127 684 355 489 486 750 1242 581 1686 -30 81 -60 128 -120 195 l-46 51
147 71 c166 80 210 98 372 154 233 79 489 133 687 144 65 4 126 11 135 15 29
15 32 48 7 75 -21 23 -28 24 -143 23 -67 -1 -170 -8 -230 -15z m-1041 -596
c135 -153 192 -368 166 -621 -53 -514 -380 -1057 -746 -1239 -100 -50 -154
-63 -266 -63 -98 0 -110 2 -164 30 -116 59 -162 159 -152 330 25 405 385 1004
851 1414 105 92 243 200 258 201 3 0 27 -24 53 -52z m2730 -232 c89 -18 156
-48 194 -87 26 -25 31 -38 31 -77 0 -67 -41 -132 -147 -232 -72 -68 -126 -107
-274 -194 -404 -239 -921 -567 -1432 -908 -232 -155 -297 -194 -292 -176 20
72 103 270 160 382 351 688 865 1206 1290 1300 85 19 361 14 470 -8z m5745
-1774 c0 -4 -44 -129 -98 -277 -61 -167 -114 -296 -139 -337 -91 -148 -235
-316 -350 -406 -248 -193 -439 -79 -365 216 94 370 452 725 802 797 74 15 150
19 150 7z"/>
<path d="M20355 19855 c-347 -43 -697 -150 -1020 -312 l-111 -55 -94 35 c-176
65 -225 72 -505 71 -238 -1 -257 -3 -390 -31 -466 -100 -914 -387 -1238 -793
-366 -458 -590 -1021 -626 -1571 -25 -387 64 -684 271 -904 231 -245 585 -369
1006 -352 340 13 620 115 1102 402 91 54 239 142 330 195 91 53 254 150 363
214 110 65 201 116 203 114 2 -3 -3 -40 -11 -84 -25 -129 -55 -379 -55 -458 0
-59 4 -78 21 -100 28 -36 45 -43 122 -56 54 -8 74 -8 101 4 47 20 167 101 311
211 66 50 188 137 270 192 83 56 189 128 238 162 48 34 87 60 87 58 0 -21 -64
-458 -73 -501 -29 -132 11 -223 110 -252 92 -27 156 -15 299 55 173 84 238
121 1372 785 261 153 475 276 477 274 7 -7 -274 -625 -322 -708 -87 -151 -101
-215 -64 -295 36 -78 81 -108 190 -127 61 -10 80 -10 147 6 100 24 291 121
594 302 129 78 345 205 480 284 198 115 558 328 748 442 31 19 29 15 -28 -64
-33 -45 -83 -135 -111 -198 -69 -152 -301 -614 -490 -975 -302 -576 -448 -922
-417 -990 14 -31 87 -67 148 -73 83 -8 123 44 226 297 26 63 148 315 272 560
l224 446 167 12 c184 13 277 29 426 74 206 63 468 186 785 366 85 49 186 106
223 127 38 21 219 127 403 236 184 109 331 193 326 186 -4 -7 -29 -42 -56 -79
-26 -37 -81 -138 -121 -225 -96 -209 -210 -435 -428 -852 -276 -527 -394 -781
-446 -956 -29 -98 -28 -118 12 -148 70 -53 152 -59 202 -15 46 41 74 90 124
219 23 58 148 319 279 581 l237 476 133 7 c454 25 737 140 1607 651 253 149
237 141 225 110 -16 -41 -40 -249 -40 -338 1 -305 88 -466 250 -467 117 0 309
86 610 276 102 64 257 162 345 217 88 55 396 257 684 450 373 249 516 339 498
315 -70 -91 -123 -275 -137 -478 -19 -260 -90 -448 -221 -580 -67 -68 -122
-96 -213 -109 -74 -11 -106 -31 -106 -67 0 -44 39 -58 149 -51 129 7 169 24
438 185 120 72 335 198 478 280 273 157 321 190 336 230 12 31 -12 72 -43 72
-16 0 -403 -214 -638 -353 -31 -19 -29 -15 21 39 97 102 149 234 149 377 0 53
-7 86 -30 144 -39 98 -48 178 -26 222 10 18 57 74 107 126 49 52 89 98 89 102
0 21 -33 53 -67 64 -43 14 -144 7 -220 -16 -36 -11 -212 -122 -591 -374 -505
-336 -640 -419 -1237 -760 -67 -39 -88 -46 -134 -46 -46 0 -56 4 -72 25 -36
49 -48 206 -33 427 l7 89 61 24 c237 90 464 266 521 404 29 68 15 178 -27 224
-46 49 -96 66 -189 65 -92 -1 -142 -11 -229 -46 -181 -71 -333 -218 -416 -403
l-37 -81 -211 -123 c-116 -68 -357 -210 -536 -317 -179 -107 -305 -177 -280
-157 79 65 254 247 308 319 65 88 137 233 152 305 25 130 -26 285 -125 379
-102 97 -244 146 -450 158 -195 10 -313 -34 -448 -168 -67 -66 -142 -118 -525
-361 -357 -227 -745 -466 -1052 -646 -14 -9 7 13 45 48 263 238 409 456 422
630 18 234 -134 416 -397 475 -105 23 -283 31 -350 15 -115 -28 -198 -77 -294
-176 -121 -124 -1430 -936 -1835 -1138 -118 -59 -228 -103 -236 -94 -2 2 32
84 76 183 272 612 390 946 355 1004 -5 7 -48 11 -118 11 l-110 0 -127 -71
c-154 -88 -793 -457 -1146 -664 -595 -348 -675 -395 -679 -395 -2 0 -6 123 -8
273 -3 250 -5 276 -24 317 -26 56 -73 97 -120 106 -107 20 -235 -20 -363 -115
-112 -83 -590 -386 -596 -379 -2 2 20 151 48 333 l52 330 1008 621 c555 341
1041 644 1080 672 136 97 252 235 282 335 45 151 -14 271 -172 350 -116 58
-226 83 -432 97 -280 18 -489 -20 -716 -130 -279 -135 -515 -341 -767 -671
-236 -309 -475 -757 -633 -1184 -26 -71 -55 -137 -64 -146 -33 -34 -752 -473
-1051 -641 -292 -165 -509 -259 -712 -307 -72 -17 -241 -13 -343 8 -341 70
-599 320 -690 666 -102 388 38 1183 300 1705 281 563 661 887 1165 996 119 26
462 26 565 1 82 -20 185 -57 185 -66 0 -3 -41 -34 -90 -69 -215 -151 -482
-404 -653 -617 -280 -349 -474 -731 -522 -1028 -55 -337 49 -526 317 -581 103
-21 186 -20 287 4 483 116 998 771 1142 1450 31 148 32 380 1 493 -27 100 -80
199 -142 269 l-49 55 132 66 c341 169 751 284 1074 303 65 4 126 11 135 15 29
15 32 48 7 75 -22 23 -28 24 -143 23 -67 -1 -166 -7 -221 -14z m-1040 -612
c31 -38 69 -95 85 -129 156 -324 61 -850 -232 -1294 -215 -326 -490 -506 -745
-487 -179 13 -271 111 -281 297 -20 388 346 1030 838 1468 99 89 257 212 271
212 5 0 34 -30 64 -67z m2721 -217 c139 -28 224 -92 224 -167 0 -62 -34 -116
-139 -219 -73 -72 -124 -111 -206 -159 -372 -216 -864 -526 -1392 -877 -227
-150 -413 -269 -413 -263 0 26 79 218 145 354 184 377 450 745 725 1001 92 87
240 192 343 245 186 96 252 110 477 104 91 -3 197 -11 236 -19z m7323 -1600
c24 -29 24 -81 1 -127 -36 -69 -154 -184 -269 -260 -57 -38 -106 -67 -108 -66
-2 2 3 36 12 75 36 174 148 334 267 382 35 14 84 12 97 -4z m-3831 -69 c27
-18 49 -45 69 -84 27 -55 28 -64 28 -198 0 -129 -2 -145 -26 -203 -48 -114
-92 -176 -204 -287 -87 -87 -133 -123 -218 -173 -120 -71 -236 -121 -353 -152
-79 -20 -214 -38 -214 -27 0 13 117 272 190 421 171 348 349 603 483 691 80
52 178 57 245 12z m2094 21 c53 -16 103 -74 125 -145 25 -81 24 -249 -1 -323
-75 -223 -263 -418 -534 -554 -136 -68 -357 -131 -436 -124 l-34 3 64 145
c183 416 364 724 514 880 109 113 200 149 302 118z"/>
<path d="M9875 17958 c-3 -7 -27 -80 -55 -162 l-50 -150 22 -23 c27 -29 42
-29 110 1 62 27 308 211 308 229 0 23 -31 57 -68 76 -71 36 -257 56 -267 29z"/>
<path d="M23411 17809 l-53 -161 23 -24 c29 -31 46 -30 118 5 66 32 301 208
301 225 0 61 -133 116 -280 116 l-55 0 -54 -161z"/>
</g>
</svg>
